<svg version="1.1" xmlns="http://www.w3.org/2000/svg" viewBox="0 0 892.25 260.5" width="892.25" height="260.5">
  <!-- svg-source:excalidraw -->
  
  <defs>
    <style>
      @font-face {
        font-family: "Virgil";
        src: url("https://excalidraw.com/Virgil.woff2");
      }
      @font-face {
        font-family: "Cascadia";
        src: url("https://excalidraw.com/Cascadia.woff2");
      }
    </style>
  </defs>
  <g stroke-linecap="round" transform="translate(10 10) rotate(0 176.25 82.25)"><path d="M-1.01 0.44 C135.45 -0.96, 271.54 -0.7, 351.33 0.98 M0.49 -0.37 C89.13 1.53, 177.57 1.69, 352.87 -0.18 M351.11 1.07 C351.08 39.36, 350.93 77.3, 351.23 163.26 M353.02 -0.39 C352.12 58.03, 352.42 115.69, 353.45 164.38 M352.46 164.7 C226.32 163.84, 99.3 163.9, 0.4 165.29 M352.69 164.22 C236.38 166.74, 121.75 166.13, -0.23 164.66 M-1.94 163.9 C1.9 113.74, 2.67 64.7, 1.08 -1.19 M-0.88 165.04 C-0.39 108.65, -0.96 55.5, -0.54 0.5" stroke="#000000" stroke-width="2" fill="none"></path></g><g stroke-linecap="round" transform="translate(529.75 11.25) rotate(0 176.25 82.25)"><path d="M-0.88 0.92 C118.58 1.57, 238.52 0.53, 353.07 -0.36 M0.5 0.58 C124.38 1.79, 249.35 1.32, 351.96 0.64 M353.37 1.94 C351.18 57.84, 350.77 118.76, 353.26 165.51 M353.21 -0.45 C352.48 56, 353.4 110.13, 351.74 164.27 M353.5 163.51 C249.59 164.14, 146.82 164.03, 1.17 165.46 M352.63 164.76 C233.04 164.64, 114.28 165.62, -0.03 164.91 M1.77 163.47 C-0.33 108.19, -1.83 48.01, 0.33 -1.05 M-0.67 165.24 C-1.22 125.81, 0.15 85.61, -0.44 -0.42" stroke="#000000" stroke-width="2" fill="none"></path></g><g transform="translate(63 72.5) rotate(0 98.5 18)"><text x="0" y="25" font-family="Virgil, Segoe UI Emoji" font-size="28px" fill="#000000" text-anchor="start" style="white-space: pre;" direction="ltr">What We Know</text></g><g transform="translate(606 58) rotate(0 99 35.5)"><text x="99" y="25.5" font-family="Virgil, Segoe UI Emoji" font-size="28px" fill="#000000" text-anchor="middle" style="white-space: pre;" direction="ltr">What we Want</text><text x="99" y="61" font-family="Virgil, Segoe UI Emoji" font-size="28px" fill="#000000" text-anchor="middle" style="white-space: pre;" direction="ltr"> to Know</text></g><g stroke-linecap="round"><g transform="translate(362 91) rotate(0 83 -1)"><path d="M0 0 C27.67 -0.33, 138.33 -1.67, 166 -2 M0 0 C27.67 -0.33, 138.33 -1.67, 166 -2" stroke="#000000" stroke-width="2" fill="none"></path></g><g transform="translate(362 91) rotate(0 83 -1)"><path d="M137.93 8.6 C144.67 6.06, 151.4 3.51, 166 -2 M137.93 8.6 C149 4.42, 160.07 0.24, 166 -2" stroke="#000000" stroke-width="2" fill="none"></path></g><g transform="translate(362 91) rotate(0 83 -1)"><path d="M137.69 -11.92 C144.48 -9.54, 151.28 -7.16, 166 -2 M137.69 -11.92 C148.85 -8.01, 160.02 -4.1, 166 -2" stroke="#000000" stroke-width="2" fill="none"></path></g></g><g transform="translate(345.5 214.5) rotate(0 100 18)"><text x="0" y="25" font-family="Virgil, Segoe UI Emoji" font-size="28px" fill="#000000" text-anchor="start" style="white-space: pre;" direction="ltr">Knowledge Gap</text></g></svg>