<svg xmlns="http://www.w3.org/2000/svg" xmlns:xlink="http://www.w3.org/1999/xlink" width="500" zoomAndPan="magnify" viewBox="0 0 375 374.999991" height="500" preserveAspectRatio="xMidYMid meet" version="1.0"><defs><g/><clipPath id="id1"><path d="M 97 5.050781 L 279 5.050781 L 279 371.800781 L 97 371.800781 Z M 97 5.050781 " clip-rule="nonzero"/></clipPath><clipPath id="id2"><path d="M 4.851562 98 L 371.601562 98 L 371.601562 279 L 4.851562 279 Z M 4.851562 98 " clip-rule="nonzero"/></clipPath><clipPath id="id3"><path d="M 37.492188 37.53125 L 338.242188 37.53125 L 338.242188 339.03125 L 37.492188 339.03125 Z M 37.492188 37.53125 " clip-rule="nonzero"/></clipPath></defs><path fill="#f9b132" d="M 53.34375 94.902344 C 53.34375 101.714844 48.511719 107.421875 42.050781 108.699219 C 41.148438 108.90625 40.214844 108.992188 39.253906 108.992188 C 38.238281 108.992188 37.277344 108.875 36.316406 108.671875 C 29.96875 107.332031 25.167969 101.6875 25.167969 94.902344 C 25.167969 88.121094 29.96875 82.445312 36.316406 81.105469 C 37.277344 80.902344 38.238281 80.789062 39.253906 80.789062 C 40.042969 80.789062 40.796875 80.84375 41.554688 80.992188 C 48.25 82.066406 53.34375 87.890625 53.34375 94.902344 Z M 53.34375 94.902344 " fill-opacity="1" fill-rule="nonzero"/><path fill="#349370" d="M 267.660156 303.542969 C 267.660156 311.171875 261.605469 317.398438 254.066406 317.632812 C 253.921875 317.660156 253.746094 317.660156 253.570312 317.660156 C 252.175781 317.660156 250.804688 317.457031 249.527344 317.050781 C 243.703125 315.332031 239.453125 309.949219 239.453125 303.542969 C 239.453125 295.773438 245.769531 289.457031 253.570312 289.457031 C 253.746094 289.457031 253.890625 289.457031 254.066406 289.484375 C 256.25 289.542969 258.316406 290.097656 260.121094 291.058594 C 264.601562 293.414062 267.660156 298.128906 267.660156 303.542969 Z M 267.660156 303.542969 " fill-opacity="1" fill-rule="nonzero"/><path fill="#f47a21" d="M 332.511719 52.613281 C 332.511719 56.484375 330.96875 59.945312 328.433594 62.507812 C 325.875 65.097656 322.324219 66.699219 318.421875 66.699219 C 318.074219 66.699219 317.753906 66.699219 317.402344 66.671875 C 310.070312 66.144531 304.304688 60.035156 304.304688 52.613281 C 304.304688 49.671875 305.207031 46.9375 306.75 44.664062 C 309.136719 41.203125 312.980469 38.84375 317.402344 38.554688 C 317.753906 38.496094 318.074219 38.496094 318.421875 38.496094 C 326.195312 38.496094 332.511719 44.8125 332.511719 52.613281 Z M 332.511719 52.613281 " fill-opacity="1" fill-rule="nonzero"/><path fill="#52a7d7" d="M 224.871094 179.957031 C 224.871094 198.292969 211.453125 213.488281 193.871094 216.195312 C 192.039062 216.484375 190.148438 216.628906 188.226562 216.628906 C 167.96875 216.628906 151.578125 200.214844 151.578125 179.957031 C 151.578125 159.726562 167.96875 143.308594 188.226562 143.308594 C 190.148438 143.308594 192.039062 143.453125 193.871094 143.746094 C 211.453125 146.453125 224.871094 161.648438 224.871094 179.957031 Z M 224.871094 179.957031 " fill-opacity="1" fill-rule="nonzero"/><g clip-path="url(#id1)"><path fill="#c84242" d="M 276.8125 152.308594 C 275.324219 137.226562 272.945312 122.679688 269.734375 109.082031 C 264.132812 85.242188 255.90625 63.789062 245.945312 47.050781 C 229.886719 19.96875 209.386719 5.050781 188.226562 5.050781 C 167.066406 5.050781 146.566406 19.96875 130.507812 47.050781 C 120.546875 63.789062 112.316406 85.242188 106.71875 109.082031 C 103.507812 122.679688 101.125 137.226562 99.636719 152.3125 C 98.488281 164.027344 97.90625 176.175781 97.90625 188.425781 C 97.90625 200.664062 98.488281 212.796875 99.636719 224.476562 C 101.078125 239.40625 103.457031 253.972656 106.714844 267.769531 C 112.316406 291.609375 120.542969 313.066406 130.503906 329.800781 C 146.566406 356.882812 167.0625 371.800781 188.226562 371.800781 C 209.390625 371.800781 229.886719 356.882812 245.941406 329.808594 C 247.550781 327.117188 249.152344 324.214844 250.804688 321.003906 C 251.542969 319.566406 250.953125 317.785156 249.503906 317.066406 C 248.070312 316.355469 246.339844 316.949219 245.609375 318.371094 C 244.019531 321.460938 242.480469 324.246094 240.9375 326.828125 C 225.96875 352.078125 207.25 365.980469 188.226562 365.980469 C 169.203125 365.980469 150.484375 352.078125 135.511719 326.824219 C 125.847656 310.589844 117.851562 289.710938 112.382812 266.433594 C 109.183594 252.890625 106.847656 238.585938 105.429688 223.914062 C 104.300781 212.414062 103.726562 200.476562 103.726562 188.425781 C 103.726562 176.367188 104.300781 164.40625 105.429688 152.878906 C 106.890625 138.050781 109.230469 123.765625 112.382812 110.414062 C 117.851562 87.144531 125.847656 66.261719 135.511719 50.019531 C 150.484375 24.777344 169.203125 10.871094 188.226562 10.871094 C 207.25 10.871094 225.96875 24.777344 240.941406 50.023438 C 250.601562 66.261719 258.601562 87.144531 264.070312 110.417969 C 267.222656 123.765625 269.558594 138.054688 271.019531 152.878906 C 272.152344 164.40625 272.722656 176.367188 272.722656 188.425781 C 272.722656 200.582031 272.140625 212.535156 270.992188 223.972656 C 269.558594 238.777344 267.230469 253.0625 264.066406 266.441406 C 262.386719 273.644531 260.441406 280.675781 258.273438 287.375 C 257.777344 288.90625 258.605469 290.527344 260.136719 291.023438 C 261.667969 291.515625 263.320312 290.695312 263.8125 289.164062 C 266.03125 282.308594 268.015625 275.128906 269.734375 267.777344 C 272.957031 254.148438 275.328125 239.605469 276.785156 224.546875 C 277.953125 212.925781 278.546875 200.773438 278.546875 188.425781 C 278.546875 176.175781 277.964844 164.027344 276.8125 152.308594 Z M 276.8125 152.308594 " fill-opacity="1" fill-rule="nonzero"/></g><g clip-path="url(#id2)"><path fill="#8bcb8f" d="M 188.226562 278.746094 C 175.992188 278.746094 163.84375 278.164062 152.109375 277.011719 C 137.015625 275.519531 122.46875 273.140625 108.878906 269.933594 C 85.042969 264.332031 63.59375 256.105469 46.847656 246.140625 C 19.769531 230.085938 4.851562 209.589844 4.851562 188.425781 C 4.851562 167.269531 19.757812 146.773438 46.824219 130.707031 C 63.617188 120.730469 85.078125 112.503906 108.886719 106.917969 C 122.480469 103.707031 137.027344 101.324219 152.109375 99.835938 C 175.546875 97.542969 200.90625 97.542969 224.34375 99.835938 C 239.429688 101.324219 253.96875 103.707031 267.570312 106.917969 C 291.410156 112.515625 312.867188 120.746094 329.605469 130.707031 C 356.683594 146.765625 371.601562 167.265625 371.601562 188.425781 C 371.601562 209.589844 356.683594 230.085938 329.597656 246.144531 C 312.855469 256.109375 291.40625 264.332031 267.570312 269.9375 C 253.980469 273.144531 239.4375 275.523438 224.34375 277.015625 C 212.609375 278.164062 200.460938 278.746094 188.226562 278.746094 Z M 224.058594 274.117188 L 224.085938 274.117188 Z M 188.226562 103.925781 C 176.167969 103.925781 164.207031 104.5 152.679688 105.628906 C 137.855469 107.089844 123.570312 109.429688 110.21875 112.582031 C 86.980469 118.035156 66.085938 126.035156 49.796875 135.710938 C 24.566406 150.6875 10.671875 169.40625 10.671875 188.425781 C 10.671875 207.449219 24.578125 226.167969 49.820312 241.136719 C 66.070312 250.800781 86.949219 258.800781 110.214844 264.265625 C 123.558594 267.414062 137.84375 269.753906 152.679688 271.222656 C 175.761719 273.476562 200.691406 273.476562 223.773438 271.222656 C 238.609375 269.753906 252.894531 267.414062 266.234375 264.265625 C 289.5 258.800781 310.382812 250.800781 326.628906 241.136719 C 351.875 226.167969 365.78125 207.449219 365.78125 188.425781 C 365.78125 169.402344 351.875 150.683594 326.628906 135.710938 C 310.386719 126.050781 289.507812 118.050781 266.234375 112.582031 C 252.882812 109.429688 238.597656 107.09375 223.773438 105.628906 C 212.246094 104.5 200.285156 103.925781 188.226562 103.925781 Z M 188.226562 103.925781 " fill-opacity="1" fill-rule="nonzero"/></g><path fill="#ffc05a" d="M 332.335938 63.519531 C 331.609375 62.125 329.816406 61.679688 328.46875 62.492188 L 328.25 62.621094 C 326.960938 63.394531 326.558594 65.023438 327.246094 66.359375 C 335.25 81.988281 334.613281 105.238281 325.359375 132.273438 C 319.445312 149.640625 310.261719 168 298.078125 186.839844 C 290.226562 198.914062 281.335938 210.871094 271.65625 222.382812 C 264.339844 231.117188 256.378906 239.800781 247.992188 248.191406 C 239.664062 256.515625 230.980469 264.492188 222.183594 271.886719 C 210.625 281.578125 198.664062 290.460938 186.644531 298.277344 C 167.796875 310.464844 149.4375 319.644531 132.066406 325.558594 C 98.214844 337.164062 71.320312 335.304688 56.332031 320.316406 C 41.34375 305.332031 39.484375 278.433594 51.09375 244.574219 C 57.035156 227.136719 66.222656 208.765625 78.40625 189.976562 C 86.097656 178.101562 94.964844 166.148438 104.765625 154.464844 C 112.167969 145.660156 120.144531 136.976562 128.460938 128.660156 C 136.960938 120.1875 145.644531 112.214844 154.265625 104.964844 C 166.046875 95.113281 178.015625 86.246094 189.839844 78.597656 C 208.671875 66.390625 227.023438 57.203125 244.386719 51.289062 C 267.644531 43.328125 287.84375 41.671875 303.0625 46.460938 C 304.5625 46.933594 306.164062 46.214844 306.722656 44.75 C 307.304688 43.210938 306.519531 41.453125 304.953125 40.953125 C 288.511719 35.742188 267.011719 37.386719 242.507812 45.777344 C 224.691406 51.84375 205.910156 61.242188 186.675781 73.710938 C 174.652344 81.484375 162.492188 90.496094 150.527344 100.503906 C 141.777344 107.863281 132.96875 115.949219 124.347656 124.542969 C 115.910156 132.980469 107.824219 141.785156 100.308594 150.722656 C 90.355469 162.597656 81.34375 174.738281 73.523438 186.8125 C 61.082031 206.003906 51.679688 224.804688 45.589844 242.695312 C 33.222656 278.761719 35.578125 307.789062 52.222656 324.429688 C 61.832031 334.042969 75.566406 338.890625 92.40625 338.890625 C 104.726562 338.890625 118.714844 336.289062 133.953125 331.066406 C 151.773438 324.996094 170.566406 315.609375 189.816406 303.15625 C 202.039062 295.210938 214.191406 286.1875 225.933594 276.34375 C 234.863281 268.835938 243.667969 260.746094 252.113281 252.304688 C 260.621094 243.792969 268.703125 234.980469 276.125 226.125 C 285.953125 214.433594 294.984375 202.285156 302.972656 190.003906 C 315.417969 170.757812 324.804688 151.964844 330.875 134.148438 C 340.8125 105.082031 341.304688 80.75 332.335938 63.519531 Z M 332.335938 63.519531 " fill-opacity="1" fill-rule="nonzero"/><path fill="#f97732" d="M 330.871094 242.703125 C 324.800781 224.878906 315.414062 206.085938 302.964844 186.835938 C 295.015625 174.621094 285.992188 162.46875 276.148438 150.71875 C 268.632812 141.785156 260.546875 132.980469 252.109375 124.542969 C 243.671875 116.101562 234.863281 108.015625 225.929688 100.5 C 214.054688 90.550781 201.910156 81.539062 189.839844 73.71875 C 170.652344 61.273438 151.84375 51.875 133.953125 45.78125 C 97.890625 33.414062 68.859375 35.773438 52.210938 52.417969 C 45.675781 58.980469 41.3125 67.4375 39.214844 77.589844 C 38.882812 79.191406 40.011719 80.742188 41.628906 81 C 43.183594 81.246094 44.617188 80.195312 44.941406 78.652344 C 46.816406 69.679688 50.640625 62.246094 56.328125 56.53125 C 71.316406 41.546875 98.214844 39.683594 132.070312 51.289062 C 149.511719 57.230469 167.882812 66.421875 186.667969 78.601562 C 198.542969 86.292969 210.496094 95.164062 222.183594 104.960938 C 230.988281 112.367188 239.667969 120.339844 247.992188 128.660156 C 256.308594 136.980469 264.28125 145.664062 271.683594 154.464844 C 281.382812 166.035156 290.261719 177.992188 298.078125 190.007812 C 310.261719 208.851562 319.441406 227.207031 325.359375 244.585938 C 336.964844 278.4375 335.105469 305.332031 320.117188 320.320312 C 305.132812 335.304688 278.238281 337.164062 244.378906 325.5625 C 227.011719 319.644531 208.648438 310.464844 189.8125 298.285156 C 177.785156 290.460938 165.824219 281.582031 154.265625 271.894531 C 145.46875 264.492188 136.785156 256.523438 128.457031 248.195312 C 120.152344 239.886719 112.183594 231.183594 104.761719 222.328125 C 94.933594 210.636719 86.066406 198.691406 78.398438 186.8125 C 66.265625 168.136719 57.066406 149.785156 51.0625 132.269531 C 48.554688 124.929688 46.660156 117.816406 45.410156 111.078125 C 45.117188 109.515625 43.664062 108.472656 42.09375 108.722656 C 40.488281 108.984375 39.378906 110.5 39.675781 112.097656 C 40.980469 119.125 42.953125 126.527344 45.554688 134.152344 C 51.714844 152.121094 61.125 170.910156 73.511719 189.976562 C 81.304688 202.054688 90.320312 214.195312 100.300781 226.070312 C 107.828125 235.054688 115.917969 243.878906 124.339844 252.308594 C 132.785156 260.75 141.59375 268.84375 150.523438 276.351562 C 162.265625 286.195312 174.414062 295.214844 186.644531 303.167969 C 205.890625 315.613281 224.683594 325.003906 242.5 331.070312 C 257.742188 336.296875 271.726562 338.894531 284.050781 338.894531 C 300.886719 338.894531 314.625 334.046875 324.234375 324.4375 C 340.878906 307.789062 343.234375 278.761719 330.871094 242.703125 Z M 330.871094 242.703125 " fill-opacity="1" fill-rule="nonzero"/><g clip-path="url(#id3)"><path fill="#d4e157" d="M 187.867188 37.53125 C 104.816406 37.53125 37.492188 105.023438 37.492188 188.28125 C 37.492188 271.539062 104.816406 339.03125 187.867188 339.03125 C 270.914062 339.03125 338.242188 271.539062 338.242188 188.28125 C 338.242188 105.023438 270.914062 37.53125 187.867188 37.53125 " fill-opacity="1" fill-rule="nonzero"/></g><g fill="#38b6ff" fill-opacity="1"><g transform="translate(98.315952, 231.716894)"><g><path d="M 1.59375 -27.953125 L 14.59375 -27.953125 C 17.957031 -27.953125 20.613281 -27.101562 22.5625 -25.40625 C 24.507812 -23.71875 25.484375 -21.273438 25.484375 -18.078125 C 25.484375 -15.992188 25.046875 -14.21875 24.171875 -12.75 C 23.304688 -11.289062 22.078125 -10.175781 20.484375 -9.40625 L 25.15625 0 L 16.6875 0 L 12.59375 -8.203125 L 9.875 -8.203125 L 9.875 0 L 1.59375 0 Z M 12.953125 -14.765625 C 14.234375 -14.765625 15.226562 -15.007812 15.9375 -15.5 C 16.644531 -15.988281 17 -16.847656 17 -18.078125 C 17 -19.304688 16.644531 -20.164062 15.9375 -20.65625 C 15.226562 -21.15625 14.234375 -21.40625 12.953125 -21.40625 L 9.875 -21.40625 L 9.875 -14.765625 Z M 12.953125 -14.765625 "/></g></g></g><g fill="#38b6ff" fill-opacity="1"><g transform="translate(124.593336, 231.716894)"><g><path d="M 13.078125 0.59375 C 9.210938 0.59375 6.195312 -0.285156 4.03125 -2.046875 C 1.875 -3.804688 0.796875 -6.296875 0.796875 -9.515625 C 0.796875 -12.691406 1.769531 -15.195312 3.71875 -17.03125 C 5.664062 -18.875 8.46875 -19.796875 12.125 -19.796875 C 14.46875 -19.796875 16.472656 -19.363281 18.140625 -18.5 C 19.804688 -17.632812 21.066406 -16.441406 21.921875 -14.921875 C 22.773438 -13.398438 23.203125 -11.691406 23.203125 -9.796875 L 23.203125 -7.203125 L 8.40625 -7.203125 C 9.039062 -5.492188 10.972656 -4.640625 14.203125 -4.640625 C 15.484375 -4.640625 16.796875 -4.738281 18.140625 -4.9375 C 19.484375 -5.132812 20.625 -5.421875 21.5625 -5.796875 L 21.5625 -0.796875 C 20.550781 -0.367188 19.285156 -0.03125 17.765625 0.21875 C 16.242188 0.46875 14.679688 0.59375 13.078125 0.59375 Z M 15.640625 -11.84375 C 15.503906 -12.695312 15.128906 -13.351562 14.515625 -13.8125 C 13.898438 -14.28125 13.0625 -14.515625 12 -14.515625 C 10.9375 -14.515625 10.101562 -14.273438 9.5 -13.796875 C 8.894531 -13.316406 8.53125 -12.664062 8.40625 -11.84375 Z M 15.640625 -11.84375 "/></g></g></g><g fill="#38b6ff" fill-opacity="1"><g transform="translate(148.590954, 231.716894)"><g><path d="M 8.921875 0.59375 C 6.460938 0.59375 4.492188 0.03125 3.015625 -1.09375 C 1.535156 -2.226562 0.796875 -3.847656 0.796875 -5.953125 C 0.796875 -8.117188 1.515625 -9.765625 2.953125 -10.890625 C 4.398438 -12.023438 6.492188 -12.59375 9.234375 -12.59375 C 10.222656 -12.59375 11.222656 -12.484375 12.234375 -12.265625 C 13.253906 -12.054688 14.109375 -11.796875 14.796875 -11.484375 L 14.796875 -11.84375 C 14.796875 -12.71875 14.363281 -13.378906 13.5 -13.828125 C 12.632812 -14.285156 11.425781 -14.515625 9.875 -14.515625 C 7.5625 -14.515625 5.429688 -14.050781 3.484375 -13.125 L 3.484375 -18.40625 C 4.359375 -18.832031 5.503906 -19.171875 6.921875 -19.421875 C 8.335938 -19.671875 9.84375 -19.796875 11.4375 -19.796875 C 15.144531 -19.796875 17.972656 -19.085938 19.921875 -17.671875 C 21.867188 -16.265625 22.84375 -14.269531 22.84375 -11.6875 L 22.84375 0 L 15.28125 0 L 15.28125 -1.515625 C 14.632812 -0.878906 13.75 -0.367188 12.625 0.015625 C 11.507812 0.398438 10.273438 0.59375 8.921875 0.59375 Z M 11.40625 -4.046875 C 12.125 -4.046875 12.785156 -4.175781 13.390625 -4.4375 C 14.003906 -4.707031 14.472656 -5.054688 14.796875 -5.484375 L 14.796875 -6.953125 C 13.804688 -7.597656 12.6875 -7.921875 11.4375 -7.921875 C 10.6875 -7.921875 10.101562 -7.742188 9.6875 -7.390625 C 9.28125 -7.046875 9.078125 -6.566406 9.078125 -5.953125 C 9.078125 -5.367188 9.273438 -4.90625 9.671875 -4.5625 C 10.078125 -4.21875 10.65625 -4.046875 11.40625 -4.046875 Z M 11.40625 -4.046875 "/></g></g></g><g fill="#38b6ff" fill-opacity="1"><g transform="translate(172.828543, 231.716894)"><g><path d="M 11 0.59375 C 8.96875 0.59375 7.175781 0.175781 5.625 -0.65625 C 4.082031 -1.5 2.890625 -2.6875 2.046875 -4.21875 C 1.210938 -5.75 0.796875 -7.53125 0.796875 -9.5625 C 0.796875 -11.5625 1.210938 -13.335938 2.046875 -14.890625 C 2.890625 -16.453125 4.082031 -17.660156 5.625 -18.515625 C 7.175781 -19.367188 8.96875 -19.796875 11 -19.796875 C 12.226562 -19.796875 13.378906 -19.613281 14.453125 -19.25 C 15.535156 -18.894531 16.4375 -18.410156 17.15625 -17.796875 L 17.15625 -29.5625 L 25.15625 -29.5625 L 25.15625 0 L 17.4375 0 L 17.4375 -1.765625 C 16.632812 -0.984375 15.679688 -0.394531 14.578125 0 C 13.472656 0.394531 12.28125 0.59375 11 0.59375 Z M 13.15625 -5.59375 C 14.0625 -5.59375 14.867188 -5.804688 15.578125 -6.234375 C 16.285156 -6.660156 16.8125 -7.25 17.15625 -8 L 17.15625 -11.15625 C 16.8125 -11.90625 16.285156 -12.492188 15.578125 -12.921875 C 14.867188 -13.347656 14.0625 -13.5625 13.15625 -13.5625 C 11.90625 -13.5625 10.910156 -13.207031 10.171875 -12.5 C 9.441406 -11.789062 9.078125 -10.8125 9.078125 -9.5625 C 9.078125 -8.3125 9.441406 -7.335938 10.171875 -6.640625 C 10.910156 -5.941406 11.90625 -5.59375 13.15625 -5.59375 Z M 13.15625 -5.59375 "/></g></g></g><g fill="#38b6ff" fill-opacity="1"><g transform="translate(199.585881, 231.716894)"><g><path d="M 8.15625 7.921875 C 7.226562 7.921875 6.253906 7.851562 5.234375 7.71875 C 4.222656 7.582031 3.476562 7.394531 3 7.15625 L 3 1.234375 C 3.820312 1.554688 4.726562 1.71875 5.71875 1.71875 C 6.570312 1.71875 7.222656 1.535156 7.671875 1.171875 C 8.128906 0.816406 8.492188 0.28125 8.765625 -0.4375 L 9.125 -1.359375 L 0.796875 -19.203125 L 8.796875 -19.203125 L 13.359375 -7.484375 L 17.640625 -19.203125 L 25.6875 -19.203125 L 18 0.4375 C 16.988281 3 15.707031 4.882812 14.15625 6.09375 C 12.613281 7.3125 10.613281 7.921875 8.15625 7.921875 Z M 8.15625 7.921875 "/></g></g></g><g fill="#38b6ff" fill-opacity="1"><g transform="translate(225.263332, 231.716894)"><g/></g></g><g fill="#38b6ff" fill-opacity="1"><g transform="translate(238.06206, 231.716894)"><g><path d="M 10.203125 0.59375 C 7.722656 0.59375 5.84375 -0.0976562 4.5625 -1.484375 C 3.28125 -2.867188 2.640625 -4.75 2.640625 -7.125 L 2.640625 -13.796875 L 0 -13.796875 L 0 -19.203125 L 2.640625 -19.203125 L 2.640625 -24.953125 L 10.6875 -24.953125 L 10.6875 -19.203125 L 14.953125 -19.203125 L 14.953125 -13.796875 L 10.6875 -13.796875 L 10.6875 -8.28125 C 10.6875 -7.320312 10.863281 -6.632812 11.21875 -6.21875 C 11.582031 -5.800781 12.191406 -5.59375 13.046875 -5.59375 C 14.003906 -5.59375 14.921875 -5.847656 15.796875 -6.359375 L 15.796875 -0.4375 C 15.023438 -0.09375 14.21875 0.160156 13.375 0.328125 C 12.539062 0.503906 11.484375 0.59375 10.203125 0.59375 Z M 10.203125 0.59375 "/></g></g></g><g fill="#38b6ff" fill-opacity="1"><g transform="translate(253.86049, 231.716894)"><g><path d="M 12.921875 0.59375 C 10.460938 0.59375 8.320312 0.160156 6.5 -0.703125 C 4.675781 -1.566406 3.269531 -2.769531 2.28125 -4.3125 C 1.289062 -5.863281 0.796875 -7.625 0.796875 -9.59375 C 0.796875 -11.539062 1.289062 -13.285156 2.28125 -14.828125 C 3.269531 -16.378906 4.675781 -17.59375 6.5 -18.46875 C 8.320312 -19.351562 10.460938 -19.796875 12.921875 -19.796875 C 15.367188 -19.796875 17.515625 -19.351562 19.359375 -18.46875 C 21.203125 -17.59375 22.613281 -16.378906 23.59375 -14.828125 C 24.582031 -13.285156 25.078125 -11.539062 25.078125 -9.59375 C 25.078125 -7.625 24.582031 -5.863281 23.59375 -4.3125 C 22.613281 -2.769531 21.203125 -1.566406 19.359375 -0.703125 C 17.515625 0.160156 15.367188 0.59375 12.921875 0.59375 Z M 12.921875 -5.59375 C 14.117188 -5.59375 15.078125 -5.953125 15.796875 -6.671875 C 16.515625 -7.398438 16.875 -8.375 16.875 -9.59375 C 16.875 -10.820312 16.515625 -11.789062 15.796875 -12.5 C 15.078125 -13.207031 14.117188 -13.5625 12.921875 -13.5625 C 11.722656 -13.5625 10.769531 -13.207031 10.0625 -12.5 C 9.351562 -11.789062 9 -10.820312 9 -9.59375 C 9 -8.375 9.351562 -7.398438 10.0625 -6.671875 C 10.769531 -5.953125 11.722656 -5.59375 12.921875 -5.59375 Z M 12.921875 -5.59375 "/></g></g></g><g fill="#ff8a09" fill-opacity="1"><g transform="translate(131.376881, 186.67907)"><g><path d="M 6 -93.203125 L 47.859375 -93.203125 C 58.796875 -93.203125 67.351562 -90.441406 73.53125 -84.921875 C 79.707031 -79.410156 82.796875 -71.503906 82.796875 -61.203125 C 82.796875 -54.265625 81.285156 -48.347656 78.265625 -43.453125 C 75.242188 -38.566406 70.976562 -34.925781 65.46875 -32.53125 L 82 0 L 57.734375 0 L 42.9375 -29.203125 L 29.59375 -29.203125 L 29.59375 0 L 6 0 Z M 43.734375 -49.0625 C 48.441406 -49.0625 52.082031 -49.972656 54.65625 -51.796875 C 57.238281 -53.617188 58.53125 -56.753906 58.53125 -61.203125 C 58.53125 -65.816406 57.265625 -68.988281 54.734375 -70.71875 C 52.203125 -72.457031 48.535156 -73.328125 43.734375 -73.328125 L 29.59375 -73.328125 L 29.59375 -49.0625 Z M 43.734375 -49.0625 "/></g></g></g><g fill="#38b6ff" fill-opacity="1"><g transform="translate(91.401971, 278.404919)"><g><path d="M 1.6875 -29.359375 L 15.328125 -29.359375 C 18.859375 -29.359375 21.644531 -28.46875 23.6875 -26.6875 C 25.726562 -24.914062 26.75 -22.347656 26.75 -18.984375 C 26.75 -16.796875 26.296875 -14.929688 25.390625 -13.390625 C 24.484375 -11.859375 23.1875 -10.6875 21.5 -9.875 L 26.421875 0 L 17.515625 0 L 13.234375 -8.609375 L 10.375 -8.609375 L 10.375 0 L 1.6875 0 Z M 13.609375 -15.5 C 14.953125 -15.5 15.992188 -15.753906 16.734375 -16.265625 C 17.472656 -16.785156 17.84375 -17.691406 17.84375 -18.984375 C 17.84375 -20.273438 17.472656 -21.175781 16.734375 -21.6875 C 15.992188 -22.207031 14.953125 -22.46875 13.609375 -22.46875 L 10.375 -22.46875 L 10.375 -15.5 Z M 13.609375 -15.5 "/></g></g></g><g fill="#38b6ff" fill-opacity="1"><g transform="translate(118.995963, 278.404919)"><g><path d="M 13.734375 0.625 C 9.671875 0.625 6.503906 -0.296875 4.234375 -2.140625 C 1.972656 -3.984375 0.84375 -6.601562 0.84375 -10 C 0.84375 -13.332031 1.863281 -15.960938 3.90625 -17.890625 C 5.945312 -19.828125 8.882812 -20.796875 12.71875 -20.796875 C 15.1875 -20.796875 17.296875 -20.335938 19.046875 -19.421875 C 20.796875 -18.515625 22.117188 -17.257812 23.015625 -15.65625 C 23.910156 -14.0625 24.359375 -12.273438 24.359375 -10.296875 L 24.359375 -7.5625 L 8.8125 -7.5625 C 9.488281 -5.769531 11.519531 -4.875 14.90625 -4.875 C 16.25 -4.875 17.628906 -4.976562 19.046875 -5.1875 C 20.460938 -5.394531 21.660156 -5.695312 22.640625 -6.09375 L 22.640625 -0.84375 C 21.578125 -0.394531 20.242188 -0.0390625 18.640625 0.21875 C 17.046875 0.488281 15.410156 0.625 13.734375 0.625 Z M 16.421875 -12.4375 C 16.285156 -13.332031 15.894531 -14.023438 15.25 -14.515625 C 14.601562 -15.003906 13.71875 -15.25 12.59375 -15.25 C 11.476562 -15.25 10.601562 -14.992188 9.96875 -14.484375 C 9.34375 -13.984375 8.957031 -13.300781 8.8125 -12.4375 Z M 16.421875 -12.4375 "/></g></g></g><g fill="#38b6ff" fill-opacity="1"><g transform="translate(144.195954, 278.404919)"><g><path d="M 10.75 0.625 C 9.070312 0.625 7.316406 0.46875 5.484375 0.15625 C 3.648438 -0.144531 2.203125 -0.585938 1.140625 -1.171875 L 1.140625 -7.09375 C 2.285156 -6.425781 3.691406 -5.859375 5.359375 -5.390625 C 7.023438 -4.929688 8.53125 -4.703125 9.875 -4.703125 C 10.6875 -4.703125 11.273438 -4.75 11.640625 -4.84375 C 12.003906 -4.945312 12.1875 -5.148438 12.1875 -5.453125 C 12.1875 -5.734375 12.007812 -5.941406 11.65625 -6.078125 C 11.300781 -6.222656 10.648438 -6.421875 9.703125 -6.671875 L 7.765625 -7.21875 C 6.054688 -7.726562 4.703125 -8.269531 3.703125 -8.84375 C 2.710938 -9.414062 1.988281 -10.113281 1.53125 -10.9375 C 1.070312 -11.769531 0.84375 -12.8125 0.84375 -14.0625 C 0.84375 -16.332031 1.738281 -18.019531 3.53125 -19.125 C 5.320312 -20.238281 7.769531 -20.796875 10.875 -20.796875 C 12.363281 -20.796875 13.96875 -20.632812 15.6875 -20.3125 C 17.40625 -19.988281 18.6875 -19.5625 19.53125 -19.03125 L 19.53125 -13.1875 C 18.664062 -13.75 17.503906 -14.234375 16.046875 -14.640625 C 14.585938 -15.046875 13.253906 -15.25 12.046875 -15.25 C 10.398438 -15.25 9.578125 -14.96875 9.578125 -14.40625 C 9.578125 -14.15625 9.78125 -13.945312 10.1875 -13.78125 C 10.59375 -13.613281 11.300781 -13.414062 12.3125 -13.1875 L 14.0625 -12.765625 C 15.882812 -12.285156 17.285156 -11.738281 18.265625 -11.125 C 19.242188 -10.507812 19.929688 -9.789062 20.328125 -8.96875 C 20.722656 -8.144531 20.921875 -7.113281 20.921875 -5.875 C 20.921875 -3.882812 20.046875 -2.300781 18.296875 -1.125 C 16.546875 0.0390625 14.03125 0.625 10.75 0.625 Z M 10.75 0.625 "/></g></g></g><g fill="#38b6ff" fill-opacity="1"><g transform="translate(165.95195, 278.404919)"><g><path d="M 13.734375 0.625 C 9.671875 0.625 6.503906 -0.296875 4.234375 -2.140625 C 1.972656 -3.984375 0.84375 -6.601562 0.84375 -10 C 0.84375 -13.332031 1.863281 -15.960938 3.90625 -17.890625 C 5.945312 -19.828125 8.882812 -20.796875 12.71875 -20.796875 C 15.1875 -20.796875 17.296875 -20.335938 19.046875 -19.421875 C 20.796875 -18.515625 22.117188 -17.257812 23.015625 -15.65625 C 23.910156 -14.0625 24.359375 -12.273438 24.359375 -10.296875 L 24.359375 -7.5625 L 8.8125 -7.5625 C 9.488281 -5.769531 11.519531 -4.875 14.90625 -4.875 C 16.25 -4.875 17.628906 -4.976562 19.046875 -5.1875 C 20.460938 -5.394531 21.660156 -5.695312 22.640625 -6.09375 L 22.640625 -0.84375 C 21.578125 -0.394531 20.242188 -0.0390625 18.640625 0.21875 C 17.046875 0.488281 15.410156 0.625 13.734375 0.625 Z M 16.421875 -12.4375 C 16.285156 -13.332031 15.894531 -14.023438 15.25 -14.515625 C 14.601562 -15.003906 13.71875 -15.25 12.59375 -15.25 C 11.476562 -15.25 10.601562 -14.992188 9.96875 -14.484375 C 9.34375 -13.984375 8.957031 -13.300781 8.8125 -12.4375 Z M 16.421875 -12.4375 "/></g></g></g><g fill="#38b6ff" fill-opacity="1"><g transform="translate(191.151942, 278.404919)"><g><path d="M 9.359375 0.625 C 6.785156 0.625 4.722656 0.03125 3.171875 -1.15625 C 1.617188 -2.34375 0.84375 -4.046875 0.84375 -6.265625 C 0.84375 -8.523438 1.597656 -10.25 3.109375 -11.4375 C 4.617188 -12.632812 6.816406 -13.234375 9.703125 -13.234375 C 10.734375 -13.234375 11.78125 -13.117188 12.84375 -12.890625 C 13.914062 -12.671875 14.816406 -12.390625 15.546875 -12.046875 L 15.546875 -12.4375 C 15.546875 -13.351562 15.085938 -14.050781 14.171875 -14.53125 C 13.265625 -15.007812 12 -15.25 10.375 -15.25 C 7.9375 -15.25 5.695312 -14.757812 3.65625 -13.78125 L 3.65625 -19.3125 C 4.582031 -19.757812 5.785156 -20.117188 7.265625 -20.390625 C 8.742188 -20.660156 10.328125 -20.796875 12.015625 -20.796875 C 15.898438 -20.796875 18.863281 -20.050781 20.90625 -18.5625 C 22.957031 -17.082031 23.984375 -14.984375 23.984375 -12.265625 L 23.984375 0 L 16.046875 0 L 16.046875 -1.59375 C 15.367188 -0.925781 14.441406 -0.390625 13.265625 0.015625 C 12.097656 0.421875 10.796875 0.625 9.359375 0.625 Z M 11.96875 -4.234375 C 12.726562 -4.234375 13.425781 -4.375 14.0625 -4.65625 C 14.707031 -4.9375 15.203125 -5.300781 15.546875 -5.75 L 15.546875 -7.3125 C 14.503906 -7.976562 13.328125 -8.3125 12.015625 -8.3125 C 11.234375 -8.3125 10.625 -8.128906 10.1875 -7.765625 C 9.75 -7.398438 9.53125 -6.898438 9.53125 -6.265625 C 9.53125 -5.640625 9.738281 -5.144531 10.15625 -4.78125 C 10.582031 -4.414062 11.1875 -4.234375 11.96875 -4.234375 Z M 11.96875 -4.234375 "/></g></g></g><g fill="#38b6ff" fill-opacity="1"><g transform="translate(216.603932, 278.404919)"><g><path d="M 1.6875 -20.15625 L 9.78125 -20.15625 L 9.78125 -17.96875 C 10.570312 -18.78125 11.660156 -19.425781 13.046875 -19.90625 C 14.429688 -20.382812 15.945312 -20.625 17.59375 -20.625 L 17.59375 -14.109375 C 15.832031 -14.109375 14.265625 -13.867188 12.890625 -13.390625 C 11.523438 -12.921875 10.585938 -12.222656 10.078125 -11.296875 L 10.078125 0 L 1.6875 0 Z M 1.6875 -20.15625 "/></g></g></g><g fill="#38b6ff" fill-opacity="1"><g transform="translate(234.201934, 278.404919)"><g><path d="M 12.9375 0.625 C 9.207031 0.625 6.257812 -0.289062 4.09375 -2.125 C 1.925781 -3.957031 0.84375 -6.59375 0.84375 -10.03125 C 0.84375 -13.507812 1.925781 -16.171875 4.09375 -18.015625 C 6.257812 -19.867188 9.222656 -20.796875 12.984375 -20.796875 C 14.660156 -20.796875 16.269531 -20.632812 17.8125 -20.3125 C 19.351562 -19.988281 20.597656 -19.53125 21.546875 -18.9375 L 21.546875 -12.4375 C 20.703125 -13.050781 19.695312 -13.519531 18.53125 -13.84375 C 17.375 -14.164062 16.164062 -14.328125 14.90625 -14.328125 C 13.28125 -14.328125 11.976562 -13.96875 11 -13.25 C 10.019531 -12.539062 9.53125 -11.46875 9.53125 -10.03125 C 9.53125 -8.601562 10.015625 -7.539062 10.984375 -6.84375 C 11.953125 -6.144531 13.25 -5.796875 14.875 -5.796875 C 16.132812 -5.796875 17.359375 -5.960938 18.546875 -6.296875 C 19.734375 -6.628906 20.816406 -7.117188 21.796875 -7.765625 L 21.796875 -1.296875 C 20.785156 -0.679688 19.507812 -0.207031 17.96875 0.125 C 16.4375 0.457031 14.757812 0.625 12.9375 0.625 Z M 12.9375 0.625 "/></g></g></g><g fill="#38b6ff" fill-opacity="1"><g transform="translate(256.839925, 278.404919)"><g><path d="M 1.6875 -31.03125 L 10.078125 -31.03125 L 10.078125 -18.359375 C 11.929688 -19.984375 14.085938 -20.796875 16.546875 -20.796875 C 19.429688 -20.796875 21.550781 -20.054688 22.90625 -18.578125 C 24.269531 -17.109375 24.953125 -15.085938 24.953125 -12.515625 L 24.953125 0 L 16.5 0 L 16.5 -11.34375 C 16.5 -12.289062 16.296875 -13.007812 15.890625 -13.5 C 15.484375 -13.988281 14.832031 -14.234375 13.9375 -14.234375 C 12.257812 -14.234375 10.972656 -13.476562 10.078125 -11.96875 L 10.078125 0 L 1.6875 0 Z M 1.6875 -31.03125 "/></g></g></g><g fill="#ff8a09" fill-opacity="1"><g transform="translate(218.762936, 121.405012)"><g><path d="M 1.28125 -7.046875 L 7.484375 -12.671875 C 9.191406 -14.203125 10.472656 -15.3125 11.328125 -16 C 13.710938 -18.09375 15.523438 -19.722656 16.765625 -20.890625 C 18.003906 -22.066406 19.03125 -23.273438 19.84375 -24.515625 C 20.65625 -25.753906 21.0625 -26.96875 21.0625 -28.15625 C 21.0625 -29.65625 20.566406 -30.863281 19.578125 -31.78125 C 18.597656 -32.695312 17 -33.15625 14.78125 -33.15625 C 12.738281 -33.15625 10.660156 -32.769531 8.546875 -32 C 6.429688 -31.226562 4.476562 -30.160156 2.6875 -28.796875 L 2.6875 -41.34375 C 4.644531 -42.707031 6.976562 -43.773438 9.6875 -44.546875 C 12.40625 -45.316406 15.253906 -45.703125 18.234375 -45.703125 C 21.648438 -45.703125 24.601562 -45.082031 27.09375 -43.84375 C 29.59375 -42.601562 31.503906 -40.90625 32.828125 -38.75 C 34.148438 -36.59375 34.8125 -34.171875 34.8125 -31.484375 C 34.8125 -27.984375 34.109375 -25.003906 32.703125 -22.546875 C 31.296875 -20.097656 29.015625 -17.46875 25.859375 -14.65625 L 21.0625 -10.375 L 36.15625 -10.375 L 36.15625 0 L 1.28125 0 Z M 1.28125 -7.046875 "/></g></g></g></svg>