<?xml version="1.0" standalone="no"?>
<!DOCTYPE svg PUBLIC "-//W3C//DTD SVG 20010904//EN"
 "http://www.w3.org/TR/2001/REC-SVG-20010904/DTD/svg10.dtd">
<svg version="1.0" xmlns="http://www.w3.org/2000/svg"
 width="255.000000pt" height="197.000000pt" viewBox="0 0 255.000000 197.000000"
 preserveAspectRatio="xMidYMid meet">

<g transform="translate(0.000000,197.000000) scale(0.100000,-0.100000)"
fill="#000000" stroke="none">
<path d="M400 1048 l0 -548 150 0 150 0 0 226 0 226 63 -58 c34 -31 142 -133
239 -226 l177 -168 215 0 c119 0 216 3 215 8 0 4 -121 113 -269 242 -148 129
-292 255 -320 280 l-50 45 115 95 116 95 -191 3 -192 2 -59 -62 -58 -63 -1
225 0 225 -150 0 -150 0 0 -547z"/>
<path d="M1049 1573 c-14 -16 -65 -80 -114 -143 l-87 -115 520 -3 519 -2 27
-26 c58 -59 59 -153 1 -211 l-33 -33 -256 0 -256 0 0 -133 0 -132 150 -133
150 -132 0 128 0 129 123 5 c155 7 214 27 297 105 182 168 182 448 0 616 -102
95 -98 94 -591 101 l-425 6 -25 -27z"/>
</g>
</svg>
