<svg xmlns="http://www.w3.org/2000/svg" xmlns:xlink="http://www.w3.org/1999/xlink" width="500" zoomAndPan="magnify" viewBox="0 0 375 374.999991" height="500" preserveAspectRatio="xMidYMid meet" version="1.0"><defs><g/><clipPath id="id1"><path d="M 18.117188 18.503906 L 360.117188 18.503906 L 360.117188 361.253906 L 18.117188 361.253906 Z M 18.117188 18.503906 " clip-rule="nonzero"/></clipPath></defs><g clip-path="url(#id1)"><path fill="#d4e157" d="M 189.117188 18.503906 C 94.679688 18.503906 18.121094 95.230469 18.121094 189.878906 C 18.121094 284.527344 94.679688 361.253906 189.117188 361.253906 C 283.554688 361.253906 360.113281 284.527344 360.113281 189.878906 C 360.113281 95.230469 283.554688 18.503906 189.117188 18.503906 " fill-opacity="1" fill-rule="nonzero"/></g><g fill="#ff8a09" fill-opacity="1"><g transform="translate(61.549836, 301.841931)"><g><path d="M 12.453125 -193.5625 L 99.40625 -193.5625 C 122.113281 -193.5625 139.878906 -187.835938 152.703125 -176.390625 C 165.535156 -164.941406 171.953125 -148.507812 171.953125 -127.09375 C 171.953125 -112.695312 168.8125 -100.421875 162.53125 -90.265625 C 156.257812 -80.117188 147.40625 -72.550781 135.96875 -67.5625 L 170.296875 0 L 119.90625 0 L 89.15625 -60.640625 L 61.46875 -60.640625 L 61.46875 0 L 12.453125 0 Z M 90.828125 -101.90625 C 100.609375 -101.90625 108.175781 -103.796875 113.53125 -107.578125 C 118.882812 -111.359375 121.5625 -117.863281 121.5625 -127.09375 C 121.5625 -136.695312 118.929688 -143.296875 113.671875 -146.890625 C 108.410156 -150.492188 100.796875 -152.296875 90.828125 -152.296875 L 61.46875 -152.296875 L 61.46875 -101.90625 Z M 90.828125 -101.90625 "/></g></g></g><g fill="#ff8a09" fill-opacity="1"><g transform="translate(243.651003, 166.271704)"><g><path d="M 2.65625 -14.625 L 15.546875 -26.3125 C 19.097656 -29.507812 21.757812 -31.816406 23.53125 -33.234375 C 28.488281 -37.578125 32.253906 -40.960938 34.828125 -43.390625 C 37.398438 -45.828125 39.523438 -48.332031 41.203125 -50.90625 C 42.890625 -53.476562 43.734375 -56.003906 43.734375 -58.484375 C 43.734375 -61.585938 42.710938 -64.09375 40.671875 -66 C 38.628906 -67.90625 35.304688 -68.859375 30.703125 -68.859375 C 26.453125 -68.859375 22.132812 -68.054688 17.75 -66.453125 C 13.363281 -64.859375 9.304688 -62.644531 5.578125 -59.8125 L 5.578125 -85.875 C 9.660156 -88.707031 14.515625 -90.921875 20.140625 -92.515625 C 25.765625 -94.109375 31.675781 -94.90625 37.875 -94.90625 C 44.96875 -94.90625 51.101562 -93.617188 56.28125 -91.046875 C 61.46875 -88.484375 65.4375 -84.960938 68.1875 -80.484375 C 70.9375 -76.003906 72.3125 -70.972656 72.3125 -65.390625 C 72.3125 -58.128906 70.847656 -51.953125 67.921875 -46.859375 C 64.992188 -41.765625 60.253906 -36.289062 53.703125 -30.4375 L 43.734375 -21.53125 L 75.09375 -21.53125 L 75.09375 0 L 2.65625 0 Z M 2.65625 -14.625 "/></g></g></g></svg>